#!OML:ASF F:\VICON\USERDATA\INSTALL\Justin_Nancy\Justin_Nancy.ASF
:FULLY-SPECIFIED
:DEGREES
373
root 0.583462 15.0501 14.8985 -0.556665 -4.02771 -3.64035
lowerback 19.6587 -0.388662 0.451315
upperback 1.91551 -0.0819569 3.53613
thorax -8.93945 0.012364 3.6244
lowerneck -17.2283 -2.96618 -8.64809
upperneck 16.6458 -3.19473 6.82997
head 8.25588 -1.3774 3.3337
rclavicle 8.94531e-016 2.0276e-014
rhumerus -47.5828 -8.43575 -75.1785
rradius 42.5837
rwrist -1.11471
rhand -22.2664 8.69918
rfingers 7.12502
rthumb 4.15156 -21.2401
lclavicle 8.94531e-016 2.0276e-014
lhumerus -38.3604 16.0658 77.9602
lradius 42.1647
lwrist 3.90896
lhand -24.5449 19.5684
lfingers 7.12502
lthumb 1.9511 49.5393
rfemur -43.4303 0.29178 24.2756
rtibia 71.0617
rfoot -19.208 -6.37163
rtoes 9.20846
lfemur -41.2534 2.66045 -15.1739
ltibia 74.3021
lfoot -26.9009 4.73905
ltoes -7.39767
374
root 0.612773 15.1551 15.0653 -0.556019 -4.26897 -3.28213
lowerback 19.6264 -0.220279 0.33195
upperback 1.64343 0.110279 3.4091
thorax -9.23302 0.11157 3.50728
lowerneck -17.2918 -2.96051 -8.57308
upperneck 16.4219 -3.21406 6.93936
head 8.19414 -1.36846 3.35299
rclavicle 2.52457e-014 -2.5842e-014
rhumerus -46.7709 -7.83572 -75.9817
rradius 45.4734
rwrist -0.374399
rhand -23.1751 8.27203
rfingers 7.12502
rthumb 3.27399 -21.6826
lclavicle 2.52457e-014 -2.5842e-014
lhumerus -37.6714 15.0694 79.667
lradius 44.1915
lwrist -2.92626
lhand -22.1104 23.2986
lfingers 7.12502
lthumb 4.3022 53.2349
rfemur -42.2266 0.471652 23.7349
rtibia 70.1502
rfoot -19.37 -6.4832
rtoes 8.85664
lfemur -39.9903 2.70887 -15.7182
ltibia 73.3955
lfoot -26.5212 4.95215
ltoes -8.56444
375
root 0.638456 15.2837 15.2314 -0.561462 -4.50003 -3.057
lowerback 19.3905 -0.0264388 0.335752
upperback 1.48851 0.355858 3.30154
thorax -9.28744 0.227941 3.31908
lowerneck -17.5075 -3.07144 -8.56578
upperneck 16.2468 -3.38611 7.15333
head 8.19178 -1.4232 3.40044
rclavicle 5.66536e-015 -2.38542e-014
rhumerus -45.9606 -7.16975 -76.694
rradius 48.1888
rwrist 0.585892
rhand -23.7109 8.32325
rfingers 7.12502
rthumb 2.75655 -21.6387
lclavicle 5.66536e-015 -2.38542e-014
lhumerus -36.8846 13.9298 81.3306
lradius 45.6492
lwrist -6.51531
lhand -22.5948 24.9894
lfingers 7.12502
lthumb 3.83437 54.9346
rfemur -40.879 0.712583 23.3404
rtibia 68.9352
rfoot -19.3044 -6.5241
rtoes 9.30127
lfemur -38.6286 2.77449 -16.05
ltibia 72.353
lfoot -26.0293 4.7214
ltoes -8.51559
376
root 0.664258 15.4196 15.4014 -0.632269 -4.73462 -3.01247
lowerback 19.1192 0.165554 0.628473
upperback 1.38706 0.661076 3.22183
thorax -9.26198 0.360171 2.9795
lowerneck -17.5865 -3.26007 -8.71353
upperneck 15.9929 -3.63018 7.36312
head 8.14883 -1.52451 3.46216
rclavicle 1.59028e-015 7.15625e-015
rhumerus -45.1016 -6.64818 -77.196
rradius 50.365
rwrist 1.74324
rhand -24.2684 9.41834
rfingers 7.12502
rthumb 2.21816 -20.5499
lclavicle 1.59028e-015 7.15625e-015
lhumerus -36.1421 12.9706 82.7248
lradius 46.5875
lwrist -9.21454
lhand -24.0186 25.4498
lfingers 7.12502
lthumb 2.45938 55.4154
rfemur -39.2143 0.978322 23.1389
rtibia 67.4664
rfoot -19.2294 -6.41421
rtoes 8.98337
lfemur -37.1437 2.87229 -16.1802
ltibia 71.2702
lfoot -25.3889 4.61424
ltoes -9.28376
377
root 0.693244 15.562 15.5676 -0.667309 -4.86207 -3.00884
lowerback 18.9584 0.293836 0.981461
upperback 1.253 0.90017 3.16141
thorax -9.32584 0.459221 2.64781
lowerneck -18.1132 -3.41961 -8.83823
upperneck 16.2696 -3.82253 7.54891
head 8.35762 -1.59507 3.52405
rclavicle -1.2921e-015 -5.56597e-015
rhumerus -44.3743 -6.08097 -77.5679
rradius 52.741
rwrist 3.32533
rhand -24.4094 8.72388
rfingers 7.12502
rthumb 2.08201 -21.2457
lclavicle -1.2921e-015 -5.56597e-015
lhumerus -35.482 12.0044 83.9447
lradius 46.9851
lwrist -9.99122
lhand -25.863 23.7038
lfingers 7.12502
lthumb 0.678089 53.6825
rfemur -37.518 1.21577 22.9774
rtibia 65.8262
rfoot -18.9664 -6.47324
rtoes 6.54983
lfemur -35.7933 2.78753 -16.2537
ltibia 70.195
lfoot -24.5089 4.21521
ltoes -11.6015
378
root 0.725205 15.731 15.7309 -0.668126 -4.91128 -2.99645
lowerback 18.8801 0.353087 1.34939
upperback 0.987302 1.05634 3.07708
thorax -9.57386 0.517468 2.30657
lowerneck -18.4257 -3.42897 -8.72514
upperneck 16.5578 -3.85667 7.55945
head 8.51083 -1.59743 3.50764
rclavicle -2.04748e-014 -6.36111e-015
rhumerus -44.2482 -5.25729 -77.9393
rradius 55.4907
rwrist 4.07976
rhand -24.0912 8.02075
rfingers 7.12502
rthumb 2.3893 -21.9456
lclavicle -2.04748e-014 -6.36111e-015
lhumerus -35.186 11.0219 84.9392
lradius 47.3329
lwrist -8.1272
lhand -27.4749 19.871
lfingers 7.12502
lthumb -0.878738 49.8489
rfemur -35.7925 1.42576 22.7722
rtibia 64.0024
rfoot -18.5803 -6.45974
rtoes 5.19083
lfemur -34.5427 2.57891 -16.3559
ltibia 69.0276
lfoot -23.2799 3.61753
ltoes -13.4706
